<svg id="Capa_1" enable-background="new 0 0 512 512" height="512" viewBox="0 0 512 512" width="512" xmlns="http://www.w3.org/2000/svg"><g><path d="m309.156 2.27h-270.867c-21.146 0-38.289 17.143-38.289 38.289v212.34c0 21.146 17.143 38.289 38.289 38.289h38.18v40.063c0 14.43 16.071 23.047 28.09 15.061l82.967-55.124h121.63c21.146 0 38.289-17.143 38.289-38.289v-212.34c0-21.146-17.143-38.289-38.289-38.289z" fill="#dd5790"/><path d="m79.738 291.18h-41.458c-21.139 0-38.28-17.141-38.28-38.281v-212.34c0-21.15 17.141-38.291 38.28-38.291h41.457c-21.15 0-38.291 17.141-38.291 38.291v212.34c.001 21.14 17.142 38.281 38.292 38.281z" fill="#da387d"/><g fill="#524798"><path d="m275.727 85.352h-221.735c-4.268 0-7.726-3.459-7.726-7.726s3.459-7.726 7.726-7.726h221.735c4.268 0 7.726 3.459 7.726 7.726s-3.458 7.726-7.726 7.726z"/><path d="m275.727 140.775h-221.735c-4.268 0-7.726-3.459-7.726-7.726s3.459-7.726 7.726-7.726h221.735c4.268 0 7.726 3.459 7.726 7.726s-3.458 7.726-7.726 7.726z"/><path d="m275.727 196.195h-221.736c-4.268 0-7.726-3.459-7.726-7.726s3.459-7.726 7.726-7.726h221.736c4.268 0 7.726 3.459 7.726 7.726.001 4.267-3.458 7.726-7.726 7.726z"/></g><path d="m202.844 162.638h270.867c21.146 0 38.289 17.143 38.289 38.289v212.34c0 21.146-17.143 38.289-38.289 38.289h-38.18v40.063c0 14.43-16.071 23.047-28.09 15.061l-82.967-55.124h-121.63c-21.146 0-38.289-17.143-38.289-38.289v-212.34c0-21.147 17.143-38.289 38.289-38.289z" fill="#f9f6f9"/><path d="m244.293 451.548h-41.457c-21.139 0-38.28-17.141-38.28-38.281v-212.34c0-21.15 17.141-38.291 38.28-38.291h41.457c-21.15 0-38.291 17.141-38.291 38.291v212.34c0 21.14 17.141 38.281 38.291 38.281z" fill="#dddaec"/><g><path d="m375.653 367.554h-9.278v-45.361-15.747c0-7.985-6.473-14.457-14.457-14.457h-51.017c-8.341 0-15.102 6.762-15.102 15.102 0 8.341 6.762 15.102 15.102 15.102h13.068v45.361h-13.068c-8.341 0-15.102 6.762-15.102 15.102 0 8.341 6.762 15.102 15.102 15.102h74.752c8.341 0 15.102-6.762 15.102-15.102.001-8.341-6.761-15.102-15.102-15.102z" fill="#9dc6fb"/><path d="m331.174 322.19v45.354h-13.071c-8.342 0-15.101 6.769-15.101 15.111 0 4.161 1.695 7.936 4.425 10.676 2.73 2.73 6.505 4.425 10.676 4.425h-17.202c-4.171 0-7.946-1.695-10.676-4.425-2.74-2.74-4.425-6.515-4.425-10.676 0-8.342 6.759-15.111 15.101-15.111h13.071v-45.354h-13.071c-4.171 0-7.946-1.685-10.676-4.425-2.74-2.73-4.425-6.505-4.425-10.676 0-8.342 6.759-15.101 15.101-15.101h17.202c-8.342 0-15.101 6.759-15.101 15.101 0 4.171 1.695 7.946 4.425 10.676 2.73 2.74 6.505 4.425 10.676 4.425z" fill="#80b4fb"/><circle cx="340.173" cy="242.629" fill="#9dc6fb" r="26.203"/><path d="m349.155 267.25c-2.801 1.025-5.825 1.583-8.982 1.583-14.472 0-26.204-11.732-26.204-26.204s11.732-26.204 26.204-26.204c3.156 0 6.181.558 8.982 1.583-10.047 3.664-17.222 13.305-17.222 24.621s7.175 20.957 17.222 24.621z" fill="#80b4fb"/></g></g></svg>