<svg clip-rule="evenodd" fill-rule="evenodd" stroke-linejoin="round" stroke-miterlimit="2" viewBox="0 0 32 32" xmlns="http://www.w3.org/2000/svg" xmlns:serif="http://www.serif.com/"><g transform="translate(-52 -156)"><g id="Icon"><g transform="matrix(1.09 0 0 1.09 40.461 154.89)"><path d="m25.375 5.309c4.421 2.553 5.938 8.214 3.386 12.636-2.553 4.421-8.215 5.938-12.636 3.385-4.421-2.552-5.938-8.214-3.386-12.635 2.553-4.422 8.215-5.939 12.636-3.386z" fill="#fff"/></g><g transform="matrix(-1 0 0 1 84 156)"><g><path d="m5.402 18.501c.179.309.509.499.866.499h5.363c.349 0 .672-.181.853-.478.182-.297.196-.668.038-.978-.575-1.123-.916-2.354-1.001-3.612-.036-.524-.472-.932-.998-.932h-4.523c-.552 0-1 .448-1 1v3c0 .547.147 1.059.402 1.501z" fill="#0d7ba8"/></g><g><path d="m14.596 21.479c.059-.075.108-.16.144-.252.149-.384.048-.821-.255-1.1-.816-.749-1.474-1.627-1.963-2.583-.171-.334-.515-.544-.891-.544 0 0-5.551 0-8.631 0-1.657 0-3 1.343-3 3v6c0 1.657 1.343 3 3 3h6.676c.357 0 .687-.191.866-.5z" fill="#23aae1"/></g><g><path d="m14.478 20.121c-.224-.206-.528-.299-.829-.253-.3.046-.563.226-.715.489l-4.124 7.143c-.398.689-.505 1.508-.299 2.276.205.769.708 1.424 1.397 1.822 1.435.828 3.27.337 4.098-1.098 0 0 4.075-7.058 4.075-7.058.147-.255.175-.563.074-.84-.1-.277-.318-.496-.594-.598-.489-.18-.969-.404-1.436-.674-.604-.348-1.154-.755-1.647-1.209z" fill="#121954"/></g><g><path d="m20 3c0-.796-.316-1.559-.879-2.121-.562-.563-1.325-.879-2.121-.879-3.463 0-10.537 0-14 0-.796 0-1.559.316-2.121.879-.563.562-.879 1.325-.879 2.121v9c0 .796.316 1.559.879 2.121.562.563 1.325.879 2.121.879h7.523c.277 0 .542-.115.731-.317.189-.203.286-.474.267-.751-.12-1.767.266-3.589 1.218-5.237 1.426-2.471 3.823-4.034 6.432-4.488l-.171.015s1-.09 1-1.005z" fill="#23aae1"/></g></g><g transform="matrix(-1 0 0 1 84 153.5)"><circle cx="5" cy="6" fill="#fff" r="1"/></g><g transform="matrix(-1 0 0 1 80 173)"><circle cx="5" cy="6" fill="#fff" r="1"/></g><g transform="matrix(-1 0 0 1 84 173)"><circle cx="5" cy="6" fill="#fff" r="1"/></g><g transform="matrix(-1 0 0 1 84 156)"><path d="m13.135 8.067c.211-.306.235-.704.062-1.032-.173-.329-.514-.535-.885-.535h-6.312c-1.105 0-2 .895-2 2v1.5c0 1.105.895 2 2 2h4.764c.465 0 .869-.321.974-.774.202-.868.533-1.72 1.001-2.531.125-.216.257-.425.396-.628z" fill="#fff"/></g><g transform="matrix(-1 0 0 1 84 156)"><path d="m13.132 21.6.657.256c-.246-.002-.479-.096-.657-.256z"/></g><g transform="matrix(-1 0 0 1 84 156)"><path d="m26.375 3.577c-5.377-3.105-12.263-1.259-15.368 4.118-3.104 5.377-1.259 12.263 4.118 15.367 5.377 3.105 12.263 1.26 15.368-4.117 3.104-5.377 1.259-12.264-4.118-15.368zm-1 1.732c4.421 2.553 5.938 8.214 3.386 12.636-2.553 4.421-8.215 5.938-12.636 3.385-4.421-2.552-5.938-8.214-3.386-12.635 2.553-4.422 8.215-5.939 12.636-3.386z" fill="#2c3789"/></g><g transform="matrix(1 0 0 .667 .5 57)"><path d="m61.5 168c0-.828-.448-1.5-1-1.5h-3.5c-.552 0-1 .672-1 1.5v6c0 .828.448 1.5 1 1.5h3.5c.552 0 1-.672 1-1.5z" fill="#f0b638"/></g><g transform="translate(4 -1)"><path d="m61.5 168c0-.552-.448-1-1-1h-3.5c-.552 0-1 .448-1 1v7h4.5c.552 0 1-.448 1-1z" fill="#d5242e"/></g><g transform="matrix(1 0 0 1.333 7.5 -59)"><path d="m61.5 168c0-.414-.448-.75-1-.75h-3.5c-.552 0-1 .336-1 .75v6.75h4.5c.552 0 1-.336 1-.75z" fill="#f0b638"/></g></g></g></svg>