<svg width="563" height="559" xmlns="http://www.w3.org/2000/svg" xmlns:xlink="http://www.w3.org/1999/xlink" xml:space="preserve" overflow="hidden"><defs><clipPath id="clip0"><rect x="549" y="21" width="563" height="559"/></clipPath></defs><g clip-path="url(#clip0)" transform="translate(-549 -21)"><path d="M682.882 121.372 682.882 642.869 662.875 662.875 522.831 662.875 522.831 121.372Z" fill="#78B9EB" transform="matrix(1.00062 0 0 1 428.698 -101.133)"/><path d="M120.038 441.472 281.422 441.472 281.422 662.875 120.038 662.875Z" fill="#FDBF00" transform="matrix(1.00062 0 0 1 428.698 -101.133)"/><path d="M321.434 281.422 482.819 281.422 482.819 662.875 321.434 662.875Z" fill="#FF6C6C" transform="matrix(1.00062 0 0 1 428.698 -101.133)"/><path d="M20.0063 562.844 80.0252 562.844 80.0252 602.856 20.0063 602.856Z" fill="#523E6D" transform="matrix(1.00062 0 0 1 428.698 -101.133)"/><path d="M20.0063 441.472 80.0252 441.472 80.0252 481.485 20.0063 481.485Z" fill="#523E6D" transform="matrix(1.00062 0 0 1 428.698 -101.133)"/><path d="M20.0063 321.434 80.0252 321.434 80.0252 361.447 20.0063 361.447Z" fill="#523E6D" transform="matrix(1.00062 0 0 1 428.698 -101.133)"/><path d="M20.0063 201.397 80.0252 201.397 80.0252 241.409 20.0063 241.409Z" fill="#523E6D" transform="matrix(1.00062 0 0 1 428.698 -101.133)"/><path d="M20.0063 81.3589 80.0252 81.3589 80.0252 121.372 20.0063 121.372Z" fill="#523E6D" transform="matrix(1.00062 0 0 1 428.698 -101.133)"/><path d="M682.882 121.372 682.882 642.869 662.875 662.875 602.856 662.875 602.856 121.372Z" fill="#43A2DD" transform="matrix(1.00062 0 0 1 428.698 -101.133)"/><path d="M401.46 281.422 482.819 281.422 482.819 662.875 401.46 662.875Z" fill="#F93D3D" transform="matrix(1.00062 0 0 1 428.698 -101.133)"/><path d="M200.063 441.472 281.422 441.472 281.422 662.875 200.063 662.875Z" fill="#FF9F00" transform="matrix(1.00062 0 0 1 428.698 -101.133)"/><path d="M682.882 642.869 682.882 682.882 0 682.882 0 0 40.0126 0 40.0126 642.869Z" fill="#523E6D" transform="matrix(1.00062 0 0 1 428.698 -101.133)"/><path d="M401.46 642.869 682.882 642.869 682.882 682.882 401.46 682.882Z" fill="#3E254C" transform="matrix(1.00062 0 0 1 428.698 -101.133)"/></g></svg>