<svg fill="none" height="48" viewBox="0 0 48 48" width="48" xmlns="http://www.w3.org/2000/svg"><rect fill="#d0d7df" height="32" rx="5" width="32" x="8" y="8"/><path clip-rule="evenodd" d="m35.1817 15.7023c-.9364-.9364-2.4545-.9364-3.3908 0l-10.4412 10.4412c-.3906.3905-1.0237.3905-1.4143 0l-3.8423-3.8424c-.9364-.9363-2.4545-.9363-3.3908 0-.9364.9364-.9364 2.4545 0 3.3908l5.9096 5.9097c.0173.0186.035.0369.053.055l.5624.5624c.7811.7811 2.0474.7811 2.8285 0l13.1259-13.1259c.9363-.9364.9363-2.4545 0-3.3908z" fill="#4cc65e" fill-rule="evenodd"/></svg>