<svg id="flat" height="512" viewBox="0 0 64 64" width="512" xmlns="http://www.w3.org/2000/svg"><path d="m44 .73h2.11a1.51 1.51 0 0 1 1.51 1.51v34.91a0 0 0 0 1 0 0h-5.13a0 0 0 0 1 0 0v-34.91a1.51 1.51 0 0 1 1.51-1.51z" fill="#c07a53" transform="matrix(.707 .707 -.707 .707 26.59 -26.31)"/><path d="m30.41 47.12-8.89 10.88a3.17 3.17 0 0 1 -4.68.23l-11-11a3.17 3.17 0 0 1 .16-4.75l10.85-8.89a5.71 5.71 0 0 1 5.23-1.07l7.27 2.1 2.1 7.27a5.71 5.71 0 0 1 -1.04 5.23zm6-16-3.54-3.54a1.8 1.8 0 0 0 -2.54 0l-3.59 3.59 6.08 6.08 3.59-3.59a1.8 1.8 0 0 0 -.03-2.5z" fill="#ffc600"/><rect fill="#ff674c" height="4.29" rx="2.14" transform="matrix(.707 .707 -.707 .707 33.33 -10.04)" width="14.33" x="21.62" y="33.07"/><path d="m30.77 46.62a5.74 5.74 0 0 1 -.36.5l-.89 1.08-13.72-13.72 1.08-.89a5.74 5.74 0 0 1 .5-.36zm-22.85 2.66 4.55-3.77a1 1 0 0 0 .13-1.41 1 1 0 0 0 -1.41-.1l-4.69 3.86zm10.57 2.25-3.77 4.55 1.42 1.42 3.86-4.69a1 1 0 0 0 -.13-1.41 1 1 0 0 0 -1.38.13zm9.28-1.19-14.11-14.11-1.56 1.27 14.4 14.4zm-11.52-1.18a1 1 0 0 0 -1.41-1.41l-4.23 4.25 1.39 1.39z" fill="#fb9a2d"/></svg>