<svg clip-rule="evenodd" fill-rule="evenodd" height="512" image-rendering="optimizeQuality" shape-rendering="geometricPrecision" text-rendering="geometricPrecision" viewBox="0 0 512 512" width="512" xmlns="http://www.w3.org/2000/svg"><g id="Layer_x0020_1"><g id="_528138136"><g><g fill="#ceb088"><path d="m347 446h-241c-4 0-8-3-8-8 0-4 4-8 8-8h241c4 0 8 4 8 8 0 5-4 8-8 8z"/><path d="m347 396h-241c-4 0-8-3-8-8 0-4 4-7 8-7h241c4 0 8 3 8 7 0 5-4 8-8 8z"/><path d="m347 347h-241c-4 0-8-4-8-8 0-5 4-8 8-8h241c4 0 8 3 8 8 0 4-4 8-8 8z"/><path d="m347 296h-241c-4 0-8-3-8-8 0-4 4-8 8-8h241c4 0 8 4 8 8 0 5-4 8-8 8z"/><path d="m347 246h-241c-4 0-8-4-8-8s4-8 8-8h241c4 0 8 4 8 8s-4 8-8 8z"/><path d="m347 196h-241c-4 0-8-3-8-8 0-4 4-8 8-8h241c4 0 8 4 8 8 0 5-4 8-8 8z"/></g><path d="m69 411h-61c-4 0-8-4-8-8v-385c0-5 4-8 8-8h276c5 0 8 3 8 8v60c0 5-3 8-8 8-4 0-8-3-8-8l-207 317c4 0 8 3 8 8 0 4-4 8-8 8z" fill="#e7be8c"/><path d="m384 482h-315c-5 0-8-3-8-8v-395c0-5 3-8 8-8h241c5 0 82 81 82 82v321c0 5-4 8-8 8z" fill="#fed9a8"/><path d="m307 71h3c5 0 82 81 82 82v2h-76c-5 0-9-4-9-9z" fill="#d4a875"/></g><g fill="#b99e7a"><path d="m307 433h-202c-5 0-8-3-8-7s3-8 8-8h202c4 0 8 4 8 8s-4 7-8 7z"/><path d="m173 378h-68c-5 0-8-3-8-7 0-5 3-8 8-8h67c4 0 8 3 8 8 0 4-4 7-7 7z"/><path d="m173 323h-68c-5 0-8-4-8-8s3-7 8-7h67c4 0 8 3 8 7s-4 8-7 8z"/><path d="m173 268h-68c-5 0-8-4-8-8s3-7 8-7h67c4 0 8 3 8 7s-4 8-7 8z"/><path d="m173 212h-68c-5 0-8-3-8-8 0-4 3-7 8-7h67c4 0 8 3 8 7 0 5-4 8-7 8z"/><path d="m268 156h-163c-5 0-8-4-8-8s3-7 8-7h163c4 0 7 3 7 7s-3 8-7 8z"/></g><g><path d="m394 391c-2 0-4-1-5-2l-24-24c-3-3-3-8 0-11s7-3 10 0l24 24c3 3 3 8 0 11-2 1-4 2-5 2z" fill="#1b303b"/><path d="m472 502c-5 0-9-2-13-5l-81-82c-4-3-6-8-6-13s2-9 6-13l22-22c7-7 18-7 25 0l82 82c7 7 7 19 0 25l-22 22c-3 5-8 6-13 6z" fill="#ff4141"/><path d="m298 397c-29 0-57-12-77-32-21-21-32-48-32-78 0-29 11-56 32-77 42-42 111-42 154 0 42 43 42 112 0 155-21 20-48 32-77 32z" fill="#29485a"/><path d="m298 372c-23 0-43-9-59-25-33-33-33-86 0-119 32-32 86-32 118 0 16 16 25 37 25 60 0 22-9 43-25 59s-37 25-59 25z" fill="#8fc9f4"/></g></g></g></svg>