<svg xmlns="http://www.w3.org/2000/svg" version="1.1" xmlns:xlink="http://www.w3.org/1999/xlink" width="512" height="512" x="0" y="0" viewBox="0 0 457.553 457.553" style="enable-background:new 0 0 512 512" xml:space="preserve" class=""><g><g fill-rule="evenodd" clip-rule="evenodd"><path fill="#90a7b2" d="M93.81 118.698c0-59.382 48.138-107.52 107.52-107.52s107.52 48.138 107.52 107.52-48.138 107.52-107.52 107.52-107.52-48.139-107.52-107.52zm-75.792 186.66c78.098-41.503 166.862-54.469 251.625-38.9a103.462 103.462 0 0 0-29.178 28.01c-34.292 9.791-59.393 41.337-59.393 78.778 0 31.947 18.285 59.621 44.962 73.128H35.84c-19.794 0-35.84-16.046-35.84-35.84v-75.198a33.95 33.95 0 0 1 18.018-29.978z" opacity="1" data-original="#90a7b2" class=""></path><path fill="#6ed673" d="M324.898 270.848c-30.736 0-57.514 16.828-71.668 41.732-29.293 4.676-51.677 30.059-51.677 60.668 0 33.913 27.476 61.409 61.381 61.44l133.071.93h.109c33.931 0 61.44-27.507 61.44-61.44 0-33.749-27.214-61.143-60.895-61.436-14.134-24.996-40.959-41.894-71.761-41.894z" opacity="1" data-original="#2196f3" class=""></path><path fill="#7e97a3" d="M202.981 429.011v17.365H35.84C16.046 446.376 0 430.33 0 410.536v-75.198a33.949 33.949 0 0 1 18.018-29.979 386.96 386.96 0 0 1 184.963-45.257v57.385c-13.595 14.619-21.908 34.214-21.908 55.761-.001 21.54 8.313 41.14 21.908 55.763zm0-417.821v215.015c-.549.008-1.1.012-1.651.012-59.382 0-107.52-48.138-107.52-107.52s48.138-107.52 107.52-107.52c.551.001 1.102.005 1.651.013z" opacity="1" data-original="#7e97a3" class=""></path><path fill="#5dc062" d="M329.553 270.977v164.176l-66.619-.465c-33.905-.031-61.381-27.527-61.381-61.44 0-30.609 22.385-55.992 51.677-60.668 14.154-24.904 40.931-41.732 71.668-41.732 1.563 0 3.115.043 4.655.129z" opacity="1" data-original="#1e81d0" class=""></path></g></g></svg>