<svg id="svg16" clip-rule="evenodd" fill-rule="evenodd" height="512" stroke-linejoin="round" stroke-miterlimit="2" viewBox="0 0 24 24" width="512" xmlns="http://www.w3.org/2000/svg" xmlns:svg="http://www.w3.org/2000/svg"><path id="path2" d="m4.414 12 3.293 3.293c.39.39.39 1.024 0 1.414s-1.024.39-1.414 0l-4-4c-.391-.39-.391-1.024 0-1.414l4-4c.39-.39 1.024-.39 1.414 0s.39 1.024 0 1.414z" fill="#1565c0"/><path id="path6" d="m19.586 12-3.293-3.293c-.39-.39-.39-1.024 0-1.414s1.024-.39 1.414 0l4 4c.391.39.391 1.024 0 1.414l-4 4c-.39.39-1.024.39-1.414 0s-.39-1.024 0-1.414z" fill="#1565c0"/><path id="path10" d="m13.038 4.725-4 14c-.151.531.157 1.085.687 1.237.531.151 1.085-.157 1.237-.687l4-14c.151-.531-.157-1.085-.687-1.237-.531-.151-1.085.157-1.237.687z" fill="#29b6f6"/></svg>