<svg fill="none" height="512" viewBox="0 0 24 24" width="512" xmlns="http://www.w3.org/2000/svg"><g clip-rule="evenodd" fill-rule="evenodd"><path d="m23 12c0-3.31371-2.6863-6-6-6h-2c-.5523 0-1 .44772-1 1v10c0 .5523.4477 1 1 1h2c3.3137 0 6-2.6863 6-6z" fill="#c4e6ff"/><path d="m7 6c-3.31371 0-6 2.68629-6 6 0 3.3137 2.68629 6 6 6h2c.55228 0 1-.4477 1-1s-.44772-1-1-1h-2c-2.20914 0-4-1.7909-4-4 0-2.20914 1.79086-4 4-4h2c.55228 0 1-.44772 1-1s-.44772-1-1-1zm10 0c3.3137 0 6 2.68629 6 6 0 3.3137-2.6863 6-6 6h-2c-.5523 0-1-.4477-1-1s.4477-1 1-1h2c2.2091 0 4-1.7909 4-4 0-2.20914-1.7909-4-4-4h-2c-.5523 0-1-.44772-1-1s.4477-1 1-1z" fill="#024493"/><path d="m5 12c0-.5523.44772-1 1-1h12c.5523 0 1 .4477 1 1s-.4477 1-1 1h-12c-.55228 0-1-.4477-1-1z" fill="#1e93ff"/></g></svg>