<?xml version="1.0" encoding="utf-8"?>
<svg version="1.1" id="delete-image" xmlns="http://www.w3.org/2000/svg" viewBox="0 0 512 512">
  <g transform="translate(2.5, 20) scale(0.99)">
    <!-- Image frame (gray) -->
    <path d="m390 384h-332c-31.98 0-58-26.02-58-58v-224c0-31.98 26.02-58 58-58h332c31.98 0 58 26.02 58 58v224c0 31.98-26.02 58-58 58z" fill="#d5dadd"/>
    <!-- Sun (yellow) -->
    <path d="m164.77 171.48c-21.7 0-39.35-17.65-39.35-39.35s17.65-39.35 39.35-39.35 39.35 17.65 39.35 39.35-17.65 39.35-39.35 39.35z" fill="#ffb300"/>
    <!-- Mountains (light green) -->
    <path d="m163.52 384h-105.52c-31.98 0-58-26.02-58-58v-12.81l69.32-79.28c6.07-6.94 14.84-10.93 24.07-10.94h.02c9.22 0 17.99 3.97 24.06 10.91l75.21 85.79c10.16 11.59 12.52 27.52 6.16 41.56-6.37 14.05-19.9 22.77-35.32 22.77z" fill="#5dc122"/>
    <!-- Mountains (dark green) -->
    <path d="m390 384h-252.5c-9.54 0-17.91-5.39-21.85-14.08-3.94-8.68-2.49-18.54 3.79-25.72l153.6-175.68c6.07-6.94 14.84-10.93 24.07-10.94h.02c9.22 0 17.99 3.97 24.06 10.91l126.81 144.66v12.85c0 31.98-26.02 58-58 58z" fill="#256f3a"/>
    <!-- Red circle -->
    <path d="m420 468c-50.73 0-92-41.27-92-92s41.27-92 92-92 92 41.27 92 92-41.27 92-92 92z" fill="#ee3939"/>
    <!-- Shadow on circle -->
    <path d="m420 284c.83 0 1.66.03 2.49.05l-8.74-9.96c-1.24-.05-2.49-.08-3.75-.08-50.73 0-92 41.27-92 92 0 6.16.61 12.18 1.77 18h8.58c-.23-2.64-.35-5.3-.35-8 0-50.74 41.27-92.01 92-92.01z" fill="#216031"/>
    <path d="m413.75 274.08 8.74 9.96c8.87.24 17.43 1.73 25.51 4.32v-6.14c-10.51-4.78-22.08-7.64-34.25-8.14z" fill="#c8ccce"/>
    <!-- White X -->
    <path d="m451.11 344.89c-3.12-3.12-8.19-3.12-11.31 0l-19.8 19.8-19.8-19.8c-3.12-3.12-8.19-3.12-11.31 0s-3.12 8.19 0 11.31l19.8 19.8-19.8 19.8c-3.12 3.12-3.12 8.19 0 11.31 1.56 1.56 3.61 2.34 5.66 2.34s4.09-.78 5.66-2.34l19.8-19.8 19.8 19.8c1.56 1.56 3.61 2.34 5.66 2.34s4.09-.78 5.66-2.34c3.12-3.12 3.12-8.19 0-11.31l-19.8-19.8 19.8-19.8c3.11-3.12 3.11-8.19-.02-11.31z" fill="#fff"/>
  </g>
</svg>
