<svg fill="none" height="512" viewBox="0 0 24 24" width="512" xmlns="http://www.w3.org/2000/svg"><path d="m12.7573 18c-.2652 0-.5195-.1054-.7071-.2929l-9.60861-9.60869c.66525-.77653 1.52549-1.38109 2.50483-1.73781l11.63938 11.6394z" fill="#c4e6ff"/><g clip-rule="evenodd" fill-rule="evenodd"><path d="m14 7c0-.55228.4477-1 1-1h2c3.3137 0 6 2.68629 6 6 0 1.3498-.4469 2.5982-1.2005 3.6012-.3317.4415-.9586.5305-1.4002.1988-.4415-.3318-.5305-.9586-.1988-1.4002.5023-.6685.7995-1.498.7995-2.3998 0-2.20914-1.7909-4-4-4h-2c-.5523 0-1-.44772-1-1zm-4.41421 4h-3.58579c-.55228 0-1 .4477-1 1s.44772 1 1 1h5.5858zm-8.58579 1c0-2.59241 1.64407-4.8008 3.94642-5.6394l1.65862 1.65861c-2.02374.19836-3.60504 1.90489-3.60504 3.98079 0 2.2091 1.79086 4 4 4h2c.55228 0 1 .4477 1 1 0 .5522-.44772 1-1 1h-2c-3.31371 0-6-2.6863-6-6z" fill="#024493"/><path d="m1.29289 1.29289c.39053-.390521 1.02369-.390521 1.41422 0l19.99999 20.00001c.3905.3905.3905 1.0237 0 1.4142s-1.0237.3905-1.4142 0l-20.00001-19.99999c-.390521-.39053-.390521-1.02369 0-1.41422z" fill="#1e93ff"/></g></svg>