<svg id="Layer_1" enable-background="new 0 0 512 512" height="512" viewBox="0 0 512 512" width="512" xmlns="http://www.w3.org/2000/svg"><g clip-rule="evenodd" fill-rule="evenodd"><g><path d="m19.31 8h306.545c2.754 0 5.124.982 7.071 2.929l56.146 56.145c1.947 1.947 2.929 4.317 2.929 7.071v419.855c0 5.508-4.492 10-10 10h-362.691c-5.508 0-10-4.492-10-10v-476c0-5.508 4.492-10 10-10z" fill="#eceff1"/><path d="m200.655 8h125.2c2.754 0 5.124.982 7.071 2.929l56.146 56.145c1.947 1.947 2.929 4.317 2.929 7.071v419.855c0 5.508-4.492 10-10 10h-181.346z" fill="#d1d1d6"/><g fill="#a79ba7"><path d="m329.997 8.867c1.062.485 2.039 1.173 2.929 2.062l56.146 56.145c.889.889 1.577 1.867 2.062 2.929h-56.137c-2.754 0-5-2.246-5-5z"/><path d="m87.405 169.495c-4.418 0-8-3.582-8-8s3.582-8 8-8h226.5c4.418 0 8 3.582 8 8s-3.582 8-8 8zm0-66.75c-4.418 0-8-3.582-8-8s3.582-8 8-8h162.593c4.418 0 8 3.582 8 8s-3.582 8-8 8zm0 333.749c-4.418 0-8-3.582-8-8s3.582-8 8-8h226.5c4.418 0 8 3.582 8 8s-3.582 8-8 8zm0-66.75c-4.418 0-8-3.582-8-8s3.582-8 8-8h226.5c4.418 0 8 3.582 8 8s-3.582 8-8 8zm0-66.75c-4.418 0-8-3.582-8-8s3.582-8 8-8h78.807c4.418 0 8 3.582 8 8s-3.582 8-8 8zm0-66.749c-4.418 0-8-3.582-8-8s3.582-8 8-8h78.807c4.418 0 8 3.582 8 8s-3.582 8-8 8z"/></g></g><g><path d="m210.655 197.46h159.372v-42.494c0-2.004 1.103-3.719 2.926-4.55 1.824-.831 3.841-.538 5.354.777l122.664 106.654c1.131.984 1.719 2.274 1.719 3.773s-.588 2.789-1.719 3.773l-122.664 106.653c-1.513 1.315-3.53 1.608-5.354.777s-2.926-2.546-2.926-4.55v-42.494h-159.372c-5.508 0-10-4.492-10-10v-108.319c0-5.508 4.492-10 10-10z" fill="#ffe177"/><path d="m502.69 261.619c0 1.499-.588 2.789-1.719 3.773l-122.664 106.654c-1.513 1.315-3.53 1.608-5.354.777s-2.926-2.546-2.926-4.55v-42.494h-159.372c-5.508 0-10-4.492-10-10v-54.16z" fill="#ffd064"/></g></g></svg>