<?xml version="1.0" encoding="iso-8859-1"?>
<!-- Generator: Adobe Illustrator 19.0.0, SVG Export Plug-In . SVG Version: 6.00 Build 0)  -->
<svg version="1.1" id="Capa_1" xmlns="http://www.w3.org/2000/svg" xmlns:xlink="http://www.w3.org/1999/xlink" x="0px" y="0px"
	 viewBox="0 0 512 512" style="enable-background:new 0 0 512 512;" xml:space="preserve">
<path style="fill:#17ACE8;" d="M301,242h-90c-8.401,0-15,6.599-15,15v239.893c0,11.999,13.5,19.2,23.401,12.599l36.599-24.3
	l53.401-35.7c4.199-2.999,6.599-7.5,6.599-12.599V257C316,248.599,309.401,242,301,242z"/>
<g>
	<path style="fill:#1689FC;" d="M316,257v179.893c0,5.099-2.401,9.6-6.599,12.599L256,485.192V242h45
		C309.401,242,316,248.599,316,257z"/>
	<polygon style="fill:#1689FC;" points="496,90 316,272 196,272 16,90 37.599,75 471.7,75 	"/>
</g>
<polygon style="fill:#136EF1;" points="496,90 316,272 256,272 256,75 471.7,75 "/>
<path style="fill:#17ACE8;" d="M496,15v75H16V15c0-8.401,6.599-15,15-15h450C489.401,0,496,6.599,496,15z"/>
<path style="fill:#1689FC;" d="M496,15v75H256V0h225C489.401,0,496,6.599,496,15z"/>
<g>
</g>
<g>
</g>
<g>
</g>
<g>
</g>
<g>
</g>
<g>
</g>
<g>
</g>
<g>
</g>
<g>
</g>
<g>
</g>
<g>
</g>
<g>
</g>
<g>
</g>
<g>
</g>
<g>
</g>
</svg>
