<svg id="GUIDE_TO_DELETE" enable-background="new 0 0 128 128" height="512" viewBox="0 0 128 128" width="512" xmlns="http://www.w3.org/2000/svg"><g><path d="m109.09 37.31v7.76h-82.48c-3.72 0-6.97 2.48-7.95 6.07l-14.37 52.75c-.2.73-.29 1.46-.29 2.17v-85.05c0-4.84 3.92-8.76 8.76-8.76h23.37c3.29 0 6.49 1.06 9.13 3.02l1.91 1.42 11.9 8.84c2.63 1.96 5.83 3.02 9.12 3.02h32.14c4.84 0 8.76 3.91 8.76 8.76z" fill="#ff9b2e"/><path d="m123.71 55.46-14.37 52.75c-.07.26-.15.51-.25.76-1.2 3.17-4.25 5.31-7.7 5.31h-89.15c-4.67 0-8.24-3.82-8.24-8.23 0-.71.09-1.44.29-2.17l14.37-52.75c.98-3.59 4.23-6.07 7.95-6.07h89.15c5.43.01 9.37 5.16 7.95 10.4z" fill="#fecd1a"/></g></svg>