<svg id="Layer_1" enable-background="new 0 0 512 512" height="512" viewBox="0 0 512 512" width="512" xmlns="http://www.w3.org/2000/svg"><g clip-rule="evenodd" fill-rule="evenodd"><path d="m5.839 235.506c57.318-97.466 150.848-155.652 250.163-155.652s192.845 58.187 250.163 155.652c7.78 13.219 7.78 27.775 0 40.989-57.329 97.466-150.848 155.652-250.163 155.652s-192.834-58.186-250.164-155.652c-7.784-13.215-7.784-27.771.001-40.989z" fill="#7ed8f6"/><path d="m256.002 79.854c99.315 0 192.845 58.187 250.163 155.652 7.78 13.219 7.78 27.775 0 40.989-57.329 97.466-150.848 155.652-250.163 155.652 0-104.083 0-248.21 0-352.293z" fill="#6aa9ff"/><path d="m256.002 378.995c67.82 0 122.993-55.178 122.993-122.993 0-67.82-55.173-122.998-122.993-122.998s-122.993 55.178-122.993 122.998c0 67.815 55.173 122.993 122.993 122.993z" fill="#fff"/><path d="m256.002 169.572c47.652 0 86.425 38.773 86.425 86.43 0 47.652-38.773 86.425-86.425 86.425s-86.425-38.773-86.425-86.425c0-47.657 38.773-86.43 86.425-86.43z" fill="#7ed8f6"/><path d="m256.002 342.427v-172.855c47.652 0 86.425 38.773 86.425 86.43 0 47.653-38.773 86.425-86.425 86.425z" fill="#6aa9ff"/><path d="m29.706 467.626c-9.352-9.354-9.353-24.587.001-33.94l390.577-390.568c9.354-9.353 24.589-9.354 33.941.001l1.255 1.255c9.352 9.354 9.353 24.587-.001 33.94l-390.576 390.568c-9.354 9.354-24.588 9.354-33.941-.001z" fill="#cd0000"/></g></svg>