<svg id="Capa_1" enable-background="new 0 0 512 512" height="512" viewBox="0 0 512 512" width="512" xmlns="http://www.w3.org/2000/svg"><g><path d="m0 315.03c0-146.354 118.643-264.996 264.996-264.996h55.004v-35.005c0-12.987 15.382-19.837 25.034-11.149l100 90c6.621 5.959 6.621 16.34 0 22.299l-100 90c-9.652 8.688-25.034 1.837-25.034-11.149v-34.996h-51.157c-105.164 0-199.931 63.465-239.973 160.707-6.256 15.193-28.87 10.72-28.87-5.711z" fill="#44ffe8"/><path d="m264.232 105.034c-129.006 0-237.313 96.807-251.969 224.738 6.391 1.192 13.508-1.502 16.608-9.031 40.042-97.242 134.809-160.707 239.973-160.707h51.156v34.996c0 12.987 15.382 19.837 25.034 11.149l100-90c3.309-2.978 4.964-7.062 4.965-11.145z" fill="#00c6cb"/><g><path d="m512 196.97c0 146.353-118.643 264.996-264.996 264.996h-55.004v35.004c0 12.987-15.382 19.837-25.034 11.149l-100-90c-6.621-5.959-6.621-16.34 0-22.299l100-90c9.653-8.688 25.034-1.837 25.034 11.149v34.996h51.157c105.164 0 199.931-63.465 239.973-160.707 6.256-15.192 28.87-10.719 28.87 5.712z" fill="#ff6c6c"/></g><path d="m499.738 182.228c-14.657 127.931-122.964 224.738-251.969 224.738h-185.769c-.001 4.086 1.654 8.173 4.965 11.153l100 90c9.653 8.688 25.034 1.837 25.034-11.149v-35.004h55.004c146.354 0 264.997-118.642 264.997-264.995 0-8.289-5.756-13.53-12.262-14.743z" fill="#ff1f3e"/></g></svg>