<svg clip-rule="evenodd" fill-rule="evenodd" height="512" image-rendering="optimizeQuality" shape-rendering="geometricPrecision" text-rendering="geometricPrecision" viewBox="0 0 1707 1707" width="512" xmlns="http://www.w3.org/2000/svg"><g id="Layer_x0020_1"><g id="_592614936"><g><path d="m1161 983 133 133-178 178-133-133c36-21 69-47 100-78s57-64 78-100z" fill="#5d6d7e"/><path d="m1116 1294 178-178 376 376c49 49 49 129 0 178-49 49-129 49-178 0z" fill="#ff8e31"/></g><g fill="#fa7633"><path d="m1269 1091 25 25-178 178-25-25z"/><path d="m1116 1294 178-178 26 26-178 178z"/></g><circle fill="#34495e" r="601" transform="matrix(.762 -.762 .762 .762 647.772 647.774)"/><circle fill="#5d6d7e" r="601" transform="matrix(.633 -.633 .633 .633 647.772 647.773)"/><circle fill="#cee2f2" r="601" transform="matrix(.583 -.583 .583 .583 647.772 647.773)"/><path d="m440 486c-14 14-37 14-52 0-14-15-14-38 0-52 75-74 172-111 269-111s195 37 269 111c14 14 14 38 0 52s-37 14-52 0c-60-60-138-90-217-90s-157 30-217 90z" fill="#fefefe"/></g></g></svg>