<svg id="Capa_1" enable-background="new 0 0 512 512" height="512" viewBox="0 0 512 512" width="512" xmlns="http://www.w3.org/2000/svg"><g><g><g><g><path d="m15 108.755c-8.284 0-15-6.716-15-15v-63.755c0-16.542 13.458-30 30-30h63.755c8.284 0 15 6.716 15 15s-6.716 15-15 15h-63.755v63.755c0 8.285-6.716 15-15 15z" fill="#ffcb34"/></g><g><path d="m497 108.755c-8.284 0-15-6.716-15-15v-63.755h-63.755c-8.284 0-15-6.716-15-15s6.716-15 15-15h63.755c16.542 0 30 13.458 30 30v63.755c0 8.285-6.716 15-15 15z" fill="#feaf2d"/></g><g><path d="m482 512h-63.755c-8.284 0-15-6.716-15-15s6.716-15 15-15h63.755v-63.755c0-8.284 6.716-15 15-15s15 6.716 15 15v63.755c0 16.542-13.458 30-30 30z" fill="#feaf2d"/></g><g><path d="m93.755 512h-63.755c-16.542 0-30-13.458-30-30v-63.755c0-8.284 6.716-15 15-15s15 6.716 15 15v63.755h63.755c8.284 0 15 6.716 15 15s-6.715 15-15 15z" fill="#ffcb34"/></g></g><g><path d="m256 58.25 32.333 80.083-32.333 106.747-102.5-22.08-82.9-70.74c2.85-4.47 6.9-8.19 11.83-10.66l160.14-80.18c4.23-2.12 8.83-3.17 13.43-3.17z" fill="#7ed7f5"/><path d="m441.4 152.26-80.4 64.24-105 28.58v-186.83c4.6 0 9.2 1.05 13.43 3.17l160.14 80.18c4.93 2.47 8.98 6.19 11.83 10.66z" fill="#2fbfef"/><path d="m256 245.08 47 88.77-47 119.9c-4.6 0-9.2-1.05-13.43-3.17l-160.14-80.17c-10.16-5.08-16.57-15.47-16.57-26.82v-175.17c0-5.84 1.7-11.43 4.74-16.16z" fill="#2fbfef"/><path d="m446.14 168.42v175.17c0 11.35-6.41 21.74-16.57 26.82l-160.14 80.17c-4.23 2.12-8.83 3.17-13.43 3.17v-208.67l185.4-92.82c3.04 4.73 4.74 10.32 4.74 16.16z" fill="#4894ff"/></g></g></g></svg>