<svg id="Flat" enable-background="new 0 0 64 64" height="64" viewBox="0 0 64 64" width="64" xmlns="http://www.w3.org/2000/svg"><path d="m46.03 10.11c-7.65-4.92-17.63-5.43-25.75-1.32-7.97 4.03-13.43 12.09-14.19 20.99-.76 8.99 3.3 17.9 10.58 23.22 4.58 3.35 10.21 5.12 15.87 4.99 2.97-.061 4.87-3.37 3.4-5.971-2.8-4.939-1.59-11.38 2.81-14.97 3.73-3.04 9.09-3.479 13.27-1.109 2.59 1.46 5.91-.41 5.97-3.4.19-8.97-4.4-17.58-11.96-22.43z" fill="#98cbff"/><path d="m38.75 37.05c3.73-3.04 9.09-3.479 13.27-1.109 2.59 1.46 5.91-.41 5.97-3.4.19-8.97-4.4-17.58-11.96-22.43-7.65-4.921-17.63-5.431-25.75-1.321-2.482 1.255-4.719 2.901-6.648 4.842l24.231 24.23c.281-.283.574-.556.887-.812z" opacity=".2"/><path d="m30.47 12.08c2.45 0 4.5 2.04 4.5 4.5 0 2.45-2.05 4.5-4.5 4.5s-4.5-2.05-4.5-4.5c0-2.46 2.05-4.5 4.5-4.5z" fill="#ff9833"/><path d="m44.35 18.48c2.72 0 5 2.279 5 5 0 2.729-2.28 5-5 5-2.73 0-5-2.271-5-5 0-2.72 2.27-5 5-5z" fill="#edf4f5"/><path d="m16.11 32.96c1.91 0 3.5 1.59 3.5 3.5 0 1.9-1.59 3.5-3.5 3.5-1.9 0-3.5-1.6-3.5-3.5 0-1.91 1.6-3.5 3.5-3.5z" fill="#ff4089"/><path d="m18.08 20.11c2.18 0 4 1.819 4 4 0 2.18-1.82 4-4 4s-4-1.82-4-4 1.82-4 4-4z" fill="#00c56b"/><path d="m27.97 16.58c0-2.114 1.518-3.91 3.5-4.375-.324-.076-.656-.125-1-.125-2.45 0-4.5 2.04-4.5 4.5 0 2.45 2.05 4.5 4.5 4.5.344 0 .676-.049 1-.125-1.982-.467-3.5-2.268-3.5-4.375z" opacity=".2"/><path d="m41.35 23.48c0-2.38 1.737-4.421 3.999-4.896-.324-.068-.658-.104-.999-.104-2.73 0-5 2.279-5 5 0 2.729 2.27 5 5 5 .341 0 .675-.036.999-.104-2.262-.473-3.999-2.508-3.999-4.896z" opacity=".2"/><path d="m14.61 36.46c0-1.561 1.075-2.892 2.502-3.332-.32-.099-.652-.168-1.002-.168-1.9 0-3.5 1.59-3.5 3.5 0 1.9 1.6 3.5 3.5 3.5.35 0 .682-.069 1.002-.169-1.427-.442-2.502-1.778-2.502-3.331z" opacity=".2"/><path d="m16.08 24.11c0-1.834 1.293-3.398 3-3.854-.322-.086-.654-.146-1-.146-2.18 0-4 1.819-4 4 0 2.18 1.82 4 4 4 .346 0 .678-.061 1-.146-1.706-.455-3-2.021-3-3.854z" opacity=".2"/></svg>