<svg xmlns="http://www.w3.org/2000/svg" version="1.1" xmlns:xlink="http://www.w3.org/1999/xlink" width="512" height="512" x="0" y="0" viewBox="0 0 512 512" style="enable-background:new 0 0 512 512" xml:space="preserve" class=""><g><path d="M512 256c0 140.487-113.677 256-256 256C114.047 512 0 396.835 0 256 0 114.615 114.615 0 256 0c141.649 0 256 114.857 256 256z" style="" fill="#638f9f" data-original="#87dcfa" class="" opacity="1"></path><path d="M278.841 252.059v258.939c-5.91.516-11.884.843-17.91.948-1.633.042-3.287.053-4.931.053-7.701 0-15.318-.337-22.841-1.011V252.059c0-12.558 10.283-22.841 22.841-22.841 1.264 0 2.507.105 3.719.306 4.804.79 9.103 3.097 12.411 6.406 4.14 4.139 6.711 9.85 6.711 16.129z" style="" fill="#d29650" data-original="#d29650"></path><path d="M278.841 252.059v258.939c-5.91.516-11.884.843-17.91.948a22.483 22.483 0 0 1-1.296-7.554v-272.92c0-.653.032-1.306.084-1.949 4.804.79 9.103 3.097 12.411 6.406 4.14 4.14 6.711 9.851 6.711 16.13z" style="" fill="#e6b464" data-original="#e6b464"></path><path d="m429.329 66.024-23.146 61.379-21.872 57.997H125.203L82.492 65.582c-4.867-13.686 2.107-27.929 14.318-33.313 3.255-1.443 6.88-2.255 10.767-2.255h296.856c3.034 0 5.921.506 8.576 1.401 13.707 4.647 21.819 20.039 16.32 34.609z" style="" fill="#f2c230" data-original="#f2c230" class=""></path><path d="m429.329 66.024-23.146 61.379H168.609l-34.725-97.389h270.549c3.034 0 5.921.506 8.576 1.401 13.707 4.647 21.819 20.039 16.32 34.609z" style="" fill="#ffeb50" data-original="#ffeb50" class=""></path><path d="M379.014 165.071h-248.51c-10.105 0-17.243 9.897-14.046 19.477l23.809 71.292a14.78 14.78 0 0 0 14.034 10.105h201.306c6.395 0 12.069-4.1 14.058-10.177l18.83-57.343 4.577-13.936c3.148-9.582-3.978-19.418-14.058-19.418z" style="" fill="#ff563c" data-original="#ff563c" class=""></path><path d="M388.495 198.423H166.65c-10.105 0-17.231 9.897-14.034 19.488l16.035 48.033h186.956c6.395 0 12.069-4.1 14.058-10.177l18.83-57.344z" style="" fill="#ff7251" data-original="#ff7251" class=""></path><path d="M263.911 133.941V30.016h-18.305V133.94c0 5.052 4.1 9.152 9.152 9.152 5.053.001 9.153-4.099 9.153-9.151zM208.398 131.939 185.541 30.016h-18.769l23.772 105.925c1.11 4.931 6.004 8.03 10.935 6.931 4.93-1.109 8.029-6.002 6.919-10.933zM151.311 130.866l-35.879-100.85h-7.859c-3.88 0-7.505.806-10.763 2.258l37.245 104.729c1.696 4.76 6.931 7.248 11.691 5.552 4.771-1.683 7.261-6.918 5.565-11.689zM342.745 30.016h-18.769L301.12 131.939c-1.11 4.931 1.989 9.824 6.92 10.935 4.931 1.098 9.824-2.002 10.935-6.931l23.77-105.927zM413.012 31.42a26.623 26.623 0 0 0-8.579-1.403h-10.349l-35.878 100.849c-1.696 4.771.793 10.007 5.565 11.691 4.759 1.696 9.995-.793 11.691-5.552l37.55-105.585z" style="" fill="#e3a600" data-original="#e3a600" class=""></path><path d="m458.841 175.85 4.265 27.727a6.177 6.177 0 0 0 5.227 5.175l29.93 4.301c7.065 1.015 7.065 11.214 0 12.228l-29.93 4.301a6.176 6.176 0 0 0-5.227 5.175l-4.265 27.727c-1.075 6.984-11.136 6.984-12.211 0l-4.265-27.727a6.177 6.177 0 0 0-5.227-5.175l-29.93-4.301c-7.065-1.015-7.065-11.214 0-12.228l29.93-4.301a6.176 6.176 0 0 0 5.227-5.175l4.265-27.727c1.076-6.984 11.137-6.984 12.211 0zM54.08 225.795l3.356 21.821a4.86 4.86 0 0 0 4.113 4.073l23.555 3.384c5.56.799 5.56 8.824 0 9.624l-23.555 3.384a4.858 4.858 0 0 0-4.113 4.073l-3.356 21.821c-.845 5.496-8.764 5.496-9.609 0l-3.356-21.821a4.86 4.86 0 0 0-4.113-4.073l-23.555-3.384c-5.56-.799-5.56-8.824 0-9.624l23.555-3.384a4.858 4.858 0 0 0 4.113-4.073l3.356-21.821c.845-5.496 8.763-5.496 9.609 0zM115.736 323.302l3.356 21.821a4.86 4.86 0 0 0 4.113 4.073l23.555 3.384c5.56.799 5.56 8.824 0 9.624l-23.555 3.384a4.858 4.858 0 0 0-4.113 4.073l-3.356 21.821c-.845 5.496-8.764 5.496-9.609 0l-3.356-21.821a4.86 4.86 0 0 0-4.113-4.073l-23.555-3.384c-5.56-.799-5.56-8.824 0-9.624l23.555-3.384a4.858 4.858 0 0 0 4.113-4.073l3.356-21.821c.844-5.496 8.763-5.496 9.609 0z" style="" fill="#fff5f5" data-original="#fff5f5" class=""></path></g></svg>