<svg id="Capa_1" enable-background="new 0 0 511.999 511.999" height="512" viewBox="0 0 511.999 511.999" width="512" xmlns="http://www.w3.org/2000/svg"><path d="m475.01 412.796-144.287-128.525v-103.273h44.724c12.528 0 19.524-14.499 11.764-24.306l-119.448-151c-6.003-7.59-17.529-7.585-23.528 0l-119.447 151c-7.772 9.825-.743 24.306 11.764 24.306h44.724v103.273l-144.287 128.525c-6.431 5.728-6.722 15.687-.654 21.783l72.664 73c5.609 5.637 14.64 5.915 20.586.638l126.414-112.166 126.414 112.166c5.949 5.278 14.979 4.996 20.586-.638l72.664-73c6.076-6.102 5.77-16.061-.653-21.783z" fill="#fcbe29"/><path d="m475.659 434.58-72.66 73c-5.61 5.63-14.64 5.92-20.59.64l-126.41-112.17v-396.05c4.38 0 8.76 1.9 11.76 5.69l119.45 151c7.76 9.81.77 24.31-11.76 24.31h-44.73v103.27l144.29 128.53c6.42 5.72 6.73 15.68.65 21.78z" fill="#fe9022"/></svg>