<svg viewBox="0 0 512 512" xmlns="http://www.w3.org/2000/svg" xmlns:xlink="http://www.w3.org/1999/xlink"><linearGradient id="linear-gradient" gradientUnits="userSpaceOnUse" x1="151.53" x2="447.5" y1="130.55" y2="426.53"><stop offset="0" stop-color="#0f5fd3"/><stop offset="1" stop-color="#0f5fd3" stop-opacity="0"/></linearGradient><g id="Layer_2" data-name="Layer 2"><g id="Layer_1_copy_4" data-name="Layer 1 copy 4"><g id="_6" data-name="6"><circle id="background" cx="256" cy="256" fill="#02b0fd" r="256"/><path d="m510.8 280.88c-10.54 109.29-89.79 198.48-194 223.86l-134.91-134.88-36.16-52.24-16.14-74.48v-87.14l7.85-11.33 114.31-42.87h8.5l114.31 42.87z" fill="url(#linear-gradient)"/><path d="m374.56 144.64-114.31-42.87a12.08 12.08 0 0 0 -8.5 0l-114.31 42.87a12.11 12.11 0 0 0 -7.85 11.36v87.17c0 38.64 11.66 74.27 34.64 105.89 23.16 31.87 53 52.6 88.82 61.6a11.95 11.95 0 0 0 5.9 0c35.77-9 65.66-29.73 88.82-61.6 23-31.62 34.64-67.25 34.64-105.89v-87.17a12.11 12.11 0 0 0 -7.85-11.36zm-89.39 145.84a10.29 10.29 0 0 1 -9.79 13.43h-38.76a10.29 10.29 0 0 1 -9.79-13.43l15-46.56a30 30 0 1 1 28.38 0z" fill="#fff"/></g></g></g></svg>