<svg id="Layer_4" enable-background="new 0 0 24 24" height="512" viewBox="0 0 24 24" width="512" xmlns="http://www.w3.org/2000/svg"><path d="m1 0c-.552 0-1 .448-1 1v22c0 .552.448 1 1 1h5c.552 0 1-.448 1-1v-22c0-.552-.448-1-1-1z" fill="#42a5f5"/><path d="m23 0h-5c-.552 0-1 .448-1 1v22c0 .552.448 1 1 1h5c.552 0 1-.448 1-1v-22c0-.552-.448-1-1-1z" fill="#90caf9"/><path d="m8.5 1v22c0 .552.448 1 1 1h5c.552 0 1-.448 1-1v-22c0-.552-.448-1-1-1h-5c-.552 0-1 .448-1 1z" fill="#90caf9"/><path d="m12 0h-2.5c-.552 0-1 .448-1 1v22c0 .552.448 1 1 1h2.5z" fill="#7db0d9"/><path d="m20.5 0h-2.5c-.552 0-1 .448-1 1v22c0 .552.448 1 1 1h2.5z" fill="#7db0d9"/><path d="m3.5 0h-2.5c-.553 0-1 .448-1 1v22c0 .552.447 1 1 1h2.5z" fill="#3990d5"/></svg>