<svg id="Capa_1" enable-background="new 0 0 512 512" height="512" viewBox="0 0 512 512" width="512" xmlns="http://www.w3.org/2000/svg"><g><g><path d="m502 428.678h-492c-5.523 0-10-4.477-10-10v-325.356c0-5.523 4.477-10 10-10h492c5.523 0 10 4.477 10 10v325.355c0 5.523-4.477 10.001-10 10.001z" fill="#f6f1f1"/></g><g><path d="m502 83.323h-33.833v291.522c0 5.523-4.477 10-10 10h-458.167v33.833c0 5.523 4.477 10 10 10h492c5.523 0 10-4.477 10-10v-325.355c0-5.523-4.477-10-10-10z" fill="#e7ecf6"/></g><g><path d="m483.425 277.357h-454.85c-3.776 0-6.108-4.12-4.163-7.358l35.925-59.81c2.034-3.386 2.034-7.618 0-11.003l-35.925-59.81c-1.944-3.237.387-7.358 4.163-7.358h454.85c3.776 0 6.108 4.12 4.163 7.358l-35.925 59.81c-2.034 3.386-2.034 7.618 0 11.003l35.925 59.81c1.945 3.237-.387 7.358-4.163 7.358z" fill="#e7a52e"/></g><g><g><path d="m487.588 269.999-19.421-32.334v39.691h15.258c3.776.001 6.108-4.12 4.163-7.357z" fill="#e49542"/></g><g><path d="m483.425 132.018h-15.258v39.691l19.421-32.334c1.945-3.236-.387-7.357-4.163-7.357z" fill="#e49542"/></g></g><g fill="#f6f1f1"><path d="m334.935 237.685c-6.833.038-14.197.064-19.428.065v-69.52c0-4.142-3.358-7.5-7.5-7.5s-7.5 3.358-7.5 7.5v76.956c0 3.653 2.632 6.774 6.232 7.392.541.093 1.031.177 9.413.177 4.096 0 10.078-.021 18.868-.069 4.142-.023 7.481-3.4 7.458-7.542-.025-4.143-3.365-7.486-7.543-7.459z"/><path d="m187.395 160.73c-4.142 0-7.5 3.358-7.5 7.5v77.021c0 4.142 3.358 7.5 7.5 7.5s7.5-3.358 7.5-7.5v-77.021c0-4.142-3.358-7.5-7.5-7.5z"/><path d="m405.862 237.75h-24.657v-23.159h22.286c4.142 0 7.5-3.358 7.5-7.5s-3.358-7.5-7.5-7.5h-22.286v-23.159h24.657c4.142 0 7.5-3.358 7.5-7.5s-3.358-7.5-7.5-7.5h-32.157c-4.142 0-7.5 3.358-7.5 7.5v76.317c0 4.142 3.358 7.5 7.5 7.5h32.157c4.142 0 7.5-3.358 7.5-7.5s-3.358-7.499-7.5-7.499z"/><path d="m268.651 160.73h-42.535c-4.142 0-7.5 3.358-7.5 7.5s3.358 7.5 7.5 7.5h13.682v69.521c0 4.142 3.358 7.5 7.5 7.5s7.5-3.358 7.5-7.5v-69.521h13.854c4.142 0 7.5-3.358 7.5-7.5s-3.359-7.5-7.501-7.5z"/><path d="m148.673 160.73h-42.535c-4.142 0-7.5 3.358-7.5 7.5s3.358 7.5 7.5 7.5h13.682v69.521c0 4.142 3.358 7.5 7.5 7.5s7.5-3.358 7.5-7.5v-69.521h13.854c4.142 0 7.5-3.358 7.5-7.5s-3.359-7.5-7.501-7.5z"/></g><g><g><g><path d="m238.566 335.302h-184.507c-4.142 0-7.5-3.358-7.5-7.5s3.358-7.5 7.5-7.5h184.507c4.142 0 7.5 3.358 7.5 7.5s-3.358 7.5-7.5 7.5z" fill="#9dc6fb"/></g><g><path d="m238.566 374.875h-95.893c-4.142 0-7.5-3.358-7.5-7.5s3.358-7.5 7.5-7.5h95.893c4.142 0 7.5 3.358 7.5 7.5s-3.358 7.5-7.5 7.5z" fill="#9dc6fb"/></g><g><path d="m108.313 374.875h-54.254c-4.142 0-7.5-3.358-7.5-7.5s3.358-7.5 7.5-7.5h54.254c4.142 0 7.5 3.358 7.5 7.5s-3.358 7.5-7.5 7.5z" fill="#9dc6fb"/></g></g><g><g><path d="m457.941 335.302h-41.441c-4.142 0-7.5-3.358-7.5-7.5s3.358-7.5 7.5-7.5h41.441c4.142 0 7.5 3.358 7.5 7.5s-3.358 7.5-7.5 7.5z" fill="#9dc6fb"/></g><g><path d="m381.313 335.302h-107.879c-4.142 0-7.5-3.358-7.5-7.5s3.358-7.5 7.5-7.5h107.879c4.142 0 7.5 3.358 7.5 7.5s-3.358 7.5-7.5 7.5z" fill="#9dc6fb"/></g><g><path d="m457.941 374.875h-184.507c-4.142 0-7.5-3.358-7.5-7.5s3.358-7.5 7.5-7.5h184.507c4.142 0 7.5 3.358 7.5 7.5s-3.358 7.5-7.5 7.5z" fill="#9dc6fb"/></g></g></g></g></svg>