<svg viewBox="0 0 512 240" xmlns="http://www.w3.org/2000/svg"><g><path d="m375.675 239.35h-239.35c-66.095 0-119.675-53.58-119.675-119.675 0-66.095 53.581-119.675 119.675-119.675h239.35c66.094 0 119.675 53.58 119.675 119.675 0 66.094-53.581 119.675-119.675 119.675z" fill="#9facba"/><path d="m453.369 28.655c-21.229 60.851-85.283 126.854-174.209 171.583-37.235 18.729-74.865 31.733-110.547 39.111h207.062c66.095 0 119.675-53.58 119.675-119.675 0-36.439-16.291-69.069-41.981-91.019z" fill="#8d9ca8"/><path d="m136.325 33.301c-47.627 0-86.374 38.747-86.374 86.374s38.747 86.374 86.374 86.374h239.35v-172.748z" fill="#88f2a9"/><circle cx="375.675" cy="119.675" fill="#d3effd" r="86.374"/><path d="m422.013 46.8c8.534 13.393 13.499 29.281 13.499 46.339 0 47.703-38.671 86.374-86.374 86.374-17.058 0-32.946-4.965-46.339-13.499 15.332 24.061 42.23 40.035 72.875 40.035 47.703 0 86.374-38.671 86.374-86.374.001-30.646-15.973-57.543-40.035-72.875z" fill="#b2e5fb"/></g></svg>