<svg id="Capa_1" enable-background="new 0 0 512 512" height="512" viewBox="0 0 512 512" width="512" xmlns="http://www.w3.org/2000/svg"><g><g><path d="m404.885 498.122h-347.356c-31.772 0-57.529-25.756-57.529-57.529v-302.134c0-31.772 25.757-57.529 57.529-57.529h347.356c31.772 0 57.529 25.757 57.529 57.529v302.134c0 31.773-25.757 57.529-57.529 57.529z" fill="#ffe07d"/><path d="m79.118 498.115h-21.582c-31.781 0-57.536-25.755-57.536-57.525v-302.13c0-31.771 25.755-57.536 57.536-57.536h21.582c-31.781 0-57.536 25.765-57.536 57.536v302.13c0 31.77 25.755 57.525 57.536 57.525z" fill="#ffd064"/><path d="m431.508 206.023v234.572c0 14.702-11.918 26.62-26.62 26.62h-347.363c-14.702 0-26.62-11.918-26.62-26.62v-234.572c0-18.004 14.595-32.599 32.599-32.599h335.405c18.004.001 32.599 14.595 32.599 32.599z" fill="#f1f4f6"/><path d="m91.089 467.224h-33.564c-14.701 0-26.62-11.919-26.62-26.62v-234.581c0-17.997 14.598-32.595 32.595-32.595h33.563c-18.008 0-32.595 14.598-32.595 32.595v234.581c.001 14.701 11.92 26.62 26.621 26.62z" fill="#f9f6f9"/><g fill="#dd5790"><circle cx="49.747" cy="128.206" r="18.842"/><circle cx="109.649" cy="128.206" r="18.842"/><circle cx="169.551" cy="128.206" r="18.842"/></g></g><g><path d="m480.707 13.879h-221.373c-17.282 0-31.293 14.01-31.293 31.293v173.541c0 17.282 14.01 31.293 31.293 31.293h31.204v32.742c0 11.793 13.134 18.836 22.957 12.309l67.807-45.052h99.405c17.282 0 31.293-14.01 31.293-31.293v-173.54c0-17.282-14.01-31.293-31.293-31.293z" fill="#9dc6fb"/><path d="m293.209 249.999h-33.882c-17.277 0-31.286-14.009-31.286-31.286v-173.541c0-17.285 14.009-31.294 31.286-31.294h33.882c-17.285 0-31.294 14.009-31.294 31.294v173.541c0 17.277 14.009 31.286 31.294 31.286z" fill="#80b4fb"/><g><path d="m407.96 190.389h-9.418v-62.031c0-8.105-6.57-14.676-14.676-14.676h-51.786c-8.467 0-15.33 6.864-15.33 15.33 0 8.467 6.864 15.33 15.33 15.33h13.265v46.046h-13.265c-8.467 0-15.33 6.864-15.33 15.33 0 8.467 6.864 15.33 15.33 15.33h75.88c8.467 0 15.33-6.864 15.33-15.33.001-8.466-6.863-15.329-15.33-15.329z" fill="#f9f6f9"/><path d="m362.81 144.341v46.039h-13.269c-8.468 0-15.329 6.871-15.329 15.339 0 4.224 1.72 8.056 4.492 10.837 2.771 2.771 6.603 4.492 10.837 4.492h-17.461c-4.234 0-8.066-1.72-10.837-4.492-2.781-2.781-4.492-6.614-4.492-10.837 0-8.468 6.861-15.339 15.329-15.339h13.269v-46.039h-13.269c-4.234 0-8.066-1.71-10.837-4.492-2.781-2.771-4.492-6.604-4.492-10.838 0-8.468 6.861-15.329 15.329-15.329h17.462c-8.468 0-15.329 6.861-15.329 15.329 0 4.234 1.72 8.066 4.492 10.838 2.771 2.782 6.603 4.492 10.837 4.492z" fill="#dddaec"/><circle cx="371.944" cy="63.579" fill="#f9f6f9" r="26.599"/><path d="m381.062 88.571c-2.843 1.04-5.913 1.607-9.117 1.607-14.69 0-26.599-11.909-26.599-26.599s11.909-26.599 26.599-26.599c3.204 0 6.274.567 9.117 1.607-10.199 3.719-17.482 13.506-17.482 24.992 0 11.487 7.283 21.273 17.482 24.992z" fill="#dddaec"/></g></g><g fill="#5e54ac"><path d="m244.762 305.95h-119.173c-4.268 0-7.726-3.459-7.726-7.726s3.459-7.726 7.726-7.726h119.173c4.268 0 7.726 3.459 7.726 7.726s-3.459 7.726-7.726 7.726z"/><path d="m244.762 346.436h-155.23c-4.268 0-7.726-3.459-7.726-7.726s3.459-7.726 7.726-7.726h155.229c4.268 0 7.726 3.459 7.726 7.726.001 4.266-3.458 7.726-7.725 7.726z"/><path d="m244.762 386.922h-155.23c-4.268 0-7.726-3.459-7.726-7.726s3.459-7.726 7.726-7.726h155.229c4.268 0 7.726 3.459 7.726 7.726.001 4.266-3.458 7.726-7.725 7.726z"/><path d="m193.253 427.408h-103.721c-4.268 0-7.726-3.459-7.726-7.726s3.459-7.726 7.726-7.726h103.72c4.268 0 7.726 3.459 7.726 7.726.001 4.266-3.458 7.726-7.725 7.726z"/></g></g></svg>