<svg id="Capa_1" enable-background="new 0 0 430.078 430.078" height="512" viewBox="0 0 430.078 430.078" width="512" xmlns="http://www.w3.org/2000/svg"><g><g clip-rule="evenodd" fill-rule="evenodd"><path d="m107.52 107.52c0-59.382 48.138-107.52 107.519-107.52 59.382 0 107.52 48.138 107.52 107.52s-48.138 107.52-107.52 107.52c-59.381 0-107.519-48.138-107.519-107.52zm-92.16 211.519c0-12.556 6.93-24.087 18.018-29.979 113.587-60.361 249.737-60.361 363.325 0 11.088 5.892 18.016 17.422 18.016 29.979v75.198c0 19.794-16.046 35.84-35.84 35.84h-327.68c-19.794 0-35.84-16.046-35.84-35.84z" fill="#90a7b2"/><path d="m215.039 243.79v186.288h-163.839c-19.794 0-35.84-16.046-35.84-35.84v-75.198c0-12.556 6.93-24.087 18.018-29.979 56.793-30.182 119.227-45.271 181.661-45.271zm0-243.79v215.04c-59.381 0-107.519-48.138-107.519-107.52s48.138-107.52 107.519-107.52z" fill="#7e97a3"/></g></g></svg>