<svg id="Capa_1" enable-background="new 0 0 460.801 460.801" height="512" viewBox="0 0 460.801 460.801" width="512" xmlns="http://www.w3.org/2000/svg"><g><g fill="#90a7b2"><path d="m216.288 244.146c-67.923-2.914-136.44 12.057-198.271 44.915-11.087 5.892-18.017 17.422-18.017 29.979v75.198c0 19.794 16.046 35.84 35.84 35.84h275.954c-64.795-.283-117.234-52.896-117.234-117.758 0-25.407 8.047-48.935 21.728-68.174z"/><path clip-rule="evenodd" d="m199.679 0c-59.381 0-107.519 48.139-107.519 107.52 0 59.382 48.138 107.52 107.519 107.52 59.382 0 107.52-48.138 107.52-107.52 0-59.381-48.138-107.52-107.52-107.52z" fill-rule="evenodd"/></g><path d="m394.239 312.32c0 45.242-36.676 81.92-81.92 81.92-45.242 0-81.92-36.678-81.92-81.92s36.678-81.92 81.92-81.92c45.245 0 81.92 36.678 81.92 81.92z" fill="#fafafa"/><g clip-rule="evenodd" fill-rule="evenodd"><path d="m245.759 312.32c0-36.76 29.8-66.56 66.56-66.56 36.762 0 66.56 29.8 66.56 66.56s-29.798 66.56-66.56 66.56c-36.759 0-66.56-29.8-66.56-66.56zm66.56-97.28c-53.725 0-97.28 43.553-97.28 97.28s43.555 97.28 97.28 97.28c21.322 0 41.04-6.859 57.07-18.489l65.19 65.19c5.999 5.999 15.725 5.999 21.723 0s5.999-15.723 0-21.721l-65.192-65.192c11.633-16.03 18.489-35.748 18.489-57.068 0-53.727-43.553-97.28-97.28-97.28z" fill="#2196f3"/><path d="m199.679 346.774v83.304h-163.839c-19.794 0-35.84-16.046-35.84-35.84v-75.198c0-12.556 6.93-24.087 18.018-29.979 56.794-30.181 119.228-45.271 181.661-45.271v34.077c-3.328 10.897-5.12 22.467-5.12 34.453 0 11.987 1.792 23.556 5.12 34.454zm0-346.774v215.04c-59.381 0-107.519-48.138-107.519-107.52 0-59.381 48.138-107.52 107.519-107.52z" fill="#7e97a3"/><path d="m254.85 253.942c-15.092 14.858-24.451 35.525-24.451 58.378 0 45.242 36.678 81.92 81.92 81.92 22.669 0 43.188-9.208 58.02-24.087z" fill="#e5e6e8"/><path d="m244.022 243.047c-17.891 17.641-28.983 42.162-28.983 69.274 0 53.727 43.555 97.28 97.28 97.28 21.322 0 41.04-6.859 57.07-18.489l65.19 65.19c5.939 5.941 15.534 5.999 21.545.174l-96.612-97.217c-12.055 12.12-28.746 19.622-47.192 19.622-36.76 0-66.56-29.8-66.56-66.56 0-18.594 7.625-35.408 19.919-47.485z" fill="#1e81d0"/></g></g></svg>