<svg id="Layer_1" enable-background="new 0 0 452.872 452.872" height="512" viewBox="0 0 452.872 452.872" width="512" xmlns="http://www.w3.org/2000/svg"><g><g><path d="m448.593 226.056c-11.04 41.83-31.46 58.7-66.85 71.26-.01 0-.01 0-.02 0-14.31 5.08-31.06 9.45-50.63 14.49-68 17.5-135.5 80-183 105.5-46.92 25.19-116.27-82.31 2.49-149.99 17.397-11.15 145.173-93.048 159.38-102.15.219 0 41.767-31.377 83.63-36.36 42-5 70.5 38.49 55 97.25z" fill="#52528c"/><path d="m448.593 226.056c-11.04 41.83-31.46 58.7-66.85 71.26-.01 0-.01 0-.02 0-88.67.87-102.75-22.58-102.75-22.58s1.46-32.3 19.23-65.42c6.18-11.52 4-25.26 3.55-38.89l8.21-5.26c.219 0 41.767-31.377 83.63-36.36 42-5 70.5 38.49 55 97.25z" fill="#404077"/><path d="m244.763 296.646c-58.83 31.27-83.63 24.98-91.52-9.18-1.36-5.9-2.22-12.63-2.66-20.14-4.31-2.39-7.96-5.82-10.16-10.68-7.5-16.61 3.31-32.15 7.84-37.6l128.19-87.75c3.92-.18 38.76-1.04 35.31 26.02-.34 2.69-.96 5.31-1.8 7.85 2.989 7.93 11.671 18.304 18.38 24.9 14.75 14.5-14.58 69.92-83.58 106.58z" fill="#917bff"/><path d="m185.403 271.996c-.55.42-15.32 11.54-32.16 15.47-1.36-5.9-2.22-12.63-2.66-20.14 13.71 7.62 34.01 4.78 34.82 4.67z" fill="#825fff"/><path d="m324.983 186.636c-22.4 22.79-53.56 22.68-53.56 22.68 1.81-2.11 30.46-19.56 38.54-44.15 1.47 3.9 6.11 11.98 15.02 21.47z" fill="#825fff"/><path d="m286.423 151.646c-11.858 21.111-31.108 38.357-51.47 51.85-23.205 15.625-56.391 30.327-77.36 36.4-10.657-19.32-19.14-49.986-24.06-71.39-.03-.13-.05-.19-.05-.19-2.31 55.01-21.91 89.53-35.72 94.33-15.34 5.34-38 8-38 8s2.33 40.34-5 49.34c-7.327 8.982-59.989 42.328-54.34 35 3.656-3.656 19.218-34.84 24.67-45 7.33-13.67-14.67-53 0-62.67s43.5-25 47.5-30.33c4-5.34-9.5-44.17-10-113.17-.147-22.072 5.405-43.809 22.26-58.2h.01c15.06-12.86 32.23-13.8 32.23-13.8 97.74 18 141.86 70.27 159.36 99.48 7.3 12.18 9.97 20.35 9.97 20.35z" fill="#52528c"/></g><g fill="#404077"><path d="m286.423 151.646c-11.858 21.111-31.108 38.357-51.47 51.85-60.48-135.26-168.89-127.6-168.89-127.6 4.03-14.13 11.13-23.74 18.79-30.28h.01c15.06-12.86 32.23-13.8 32.23-13.8 97.74 18 141.86 70.27 159.36 99.48 7.3 12.18 9.97 20.35 9.97 20.35z"/><path d="m133.483 168.316c-2.31 55.01-21.91 89.53-35.72 94.33-15.34 5.34-38 8-38 8s2.33 40.34-5 49.34c-6.51 7.98-48.69 35.11-54.17 36.02-.14-.63-.17-1.02-.17-1.02s.01-.01.03-.03c1.47-1.32 51.87-47.05 44.31-82.85-7.66-36.34 7-15 40.1-32.67 33.09-17.67 48.62-71.12 48.62-71.12z"/><path d="m134.333 171.906c-.27-1.13-.54-2.27-.8-3.4.11.43.41 1.61.8 3.4z"/></g></g></svg>