<?xml version="1.0" encoding="iso-8859-1"?>
<!-- Generator: Adobe Illustrator 19.0.0, SVG Export Plug-In . SVG Version: 6.00 Build 0)  -->
<svg version="1.1" id="Capa_1" xmlns="http://www.w3.org/2000/svg" xmlns:xlink="http://www.w3.org/1999/xlink" x="0px" y="0px"
	 viewBox="0 0 512 512" style="enable-background:new 0 0 512 512;" xml:space="preserve">
<path style="fill:#51FAFF;" d="M511.61,256c0,68.331-26.608,132.561-74.923,180.876c-48.315,48.325-112.555,74.933-180.877,74.933
	c-68.331,0-132.571-26.608-180.887-74.933C26.608,388.561,0,324.331,0,256S26.608,123.429,74.923,75.113S187.479,0.19,255.81,0.19
	c68.321,0,132.561,26.608,180.877,74.923S511.61,187.669,511.61,256z"/>
<g>
	<path style="fill:#00E7F0;" d="M511.61,256c0,68.331-26.608,132.561-74.923,180.876c-48.315,48.325-112.555,74.933-180.877,74.933
		V0.19c68.321,0,132.561,26.608,180.877,74.923S511.61,187.669,511.61,256z"/>
	<path style="fill:#00E7F0;" d="M437.077,75.113C388.762,26.798,324.521,0.19,256.2,0.19h-0.39
		c-68.181,0.1-132.271,26.698-180.496,74.923C26.998,123.429,0.39,187.669,0.39,256s26.608,132.561,74.923,180.876
		c48.225,48.235,112.315,74.833,180.496,74.933h0.39c68.321,0,132.561-26.608,180.877-74.933C485.392,388.561,512,324.331,512,256
		S485.392,123.429,437.077,75.113z M96.53,96.34c22.497-22.497,48.905-39.652,77.684-50.856
		c-7.662,9.573-14.835,20.576-21.407,32.95c-7.642,14.364-14.224,30.149-19.716,47.005c-19.006-3.161-36.621-7.032-52.356-11.584
		C85.667,107.784,90.928,101.942,96.53,96.34z M62.57,139.674c18.406,5.892,39.452,10.863,62.42,14.795
		c-6.402,27.148-10.163,56.358-11.063,86.527H30.9C33.26,204.794,44.134,170.233,62.57,139.674z M60.939,369.555
		c-17.445-29.879-27.749-63.44-30.039-98.551h83.086c0.98,29.309,4.671,57.688,10.853,84.126
		C101.402,358.922,79.825,363.764,60.939,369.555z M96.53,415.66c-6.372-6.372-12.304-13.074-17.816-20.036
		c16.315-4.521,34.551-8.353,54.177-11.424c5.522,17.085,12.184,33.08,19.916,47.625c7.162,13.484,15.035,25.328,23.487,35.481
		C146.706,456.133,119.567,438.697,96.53,415.66z M241.195,477.949c-22.797-6.382-44.354-27.199-61.889-60.209
		c-6.132-11.544-11.524-24.138-16.145-37.552c24.718-2.721,51.006-4.331,78.034-4.711V477.949z M241.195,345.468
		c-29.969,0.41-59.178,2.291-86.527,5.502c-6.032-24.938-9.663-51.936-10.663-79.965h97.19V345.468z M241.195,240.995h-97.24
		c0.91-28.809,4.591-56.568,10.813-82.136c27.178,3.391,56.328,5.462,86.427,6.052V240.995z M241.195,134.902
		c-27.128-0.55-53.367-2.321-77.904-5.202c4.591-13.284,9.933-25.748,16.015-37.192c17.535-33.01,39.092-53.817,61.889-60.199
		L241.195,134.902L241.195,134.902z M450.771,141.264c17.856,30.169,28.399,64.15,30.72,99.731h-83.026
		c-0.89-29.819-4.581-58.708-10.843-85.587C410.738,151.677,432.045,146.926,450.771,141.264z M415.86,96.34
		c6.022,6.022,11.654,12.334,16.905,18.896c-16.065,4.381-33.951,8.103-53.167,11.103c-5.542-17.195-12.234-33.28-20.006-47.905
		c-6.572-12.374-13.744-23.377-21.417-32.95C366.955,56.688,393.363,73.843,415.86,96.34z M271.205,32.31
		c22.787,6.382,44.344,27.188,61.889,60.199c6.172,11.624,11.594,24.298,16.225,37.822c-24.748,2.711-51.066,4.301-78.114,4.671
		V32.31z M271.205,165.012c29.979-0.4,59.208-2.261,86.587-5.462c6.122,25.388,9.753,52.897,10.653,81.445h-97.24V165.012z
		 M271.205,271.005h97.18c-1,28.249-4.681,55.447-10.803,80.555c-27.168-3.381-56.298-5.432-86.377-6.012V271.005z M271.205,477.949
		V375.567c27.098,0.53,53.317,2.281,77.844,5.152c-4.581,13.224-9.903,25.638-15.955,37.022
		C315.549,450.751,293.992,471.567,271.205,477.949z M415.86,415.66c-23.037,23.037-50.176,40.463-79.765,51.646
		c8.453-10.153,16.335-21.997,23.497-35.481c7.612-14.334,14.184-30.069,19.666-46.875c19.446,3.211,37.442,7.182,53.477,11.854
		C427.494,403.346,421.872,409.648,415.86,415.66z M450.661,370.926c-18.626-5.992-39.972-11.023-63.28-15.005
		c6.292-26.658,10.033-55.317,11.033-84.917h83.076C479.17,306.656,468.586,340.706,450.661,370.926z"/>
</g>
<path style="fill:#00C0F1;" d="M437.077,75.113C388.762,26.798,324.521,0.19,256.2,0.19h-0.39v511.62h0.39
	c68.321,0,132.561-26.608,180.877-74.933C485.392,388.561,512,324.331,512,256S485.392,123.429,437.077,75.113z M450.771,141.264
	c17.856,30.169,28.399,64.15,30.72,99.731h-83.026c-0.89-29.819-4.581-58.708-10.843-85.587
	C410.738,151.677,432.045,146.926,450.771,141.264z M415.86,96.34c6.022,6.022,11.654,12.334,16.905,18.896
	c-16.065,4.381-33.951,8.103-53.167,11.103c-5.542-17.195-12.234-33.28-20.006-47.905c-6.572-12.374-13.744-23.377-21.417-32.95
	C366.955,56.688,393.363,73.843,415.86,96.34z M271.205,32.31c22.787,6.382,44.344,27.188,61.889,60.199
	c6.172,11.624,11.594,24.298,16.225,37.822c-24.748,2.711-51.066,4.301-78.114,4.671V32.31z M271.205,165.012
	c29.979-0.4,59.208-2.261,86.587-5.462c6.122,25.388,9.753,52.897,10.653,81.445h-97.24V165.012z M271.205,271.005h97.18
	c-1,28.249-4.681,55.447-10.803,80.555c-27.168-3.381-56.298-5.432-86.377-6.012V271.005z M271.205,477.949V375.567
	c27.098,0.53,53.317,2.281,77.844,5.152c-4.581,13.224-9.903,25.638-15.955,37.022C315.549,450.751,293.992,471.567,271.205,477.949
	z M415.86,415.66c-23.037,23.037-50.176,40.463-79.765,51.646c8.453-10.153,16.335-21.997,23.497-35.481
	c7.612-14.334,14.184-30.069,19.666-46.875c19.446,3.211,37.442,7.182,53.477,11.854C427.494,403.346,421.872,409.648,415.86,415.66
	z M450.661,370.926c-18.626-5.992-39.972-11.023-63.28-15.005c6.292-26.658,10.033-55.317,11.033-84.917h83.076
	C479.17,306.656,468.586,340.706,450.661,370.926z"/>
<g>
</g>
<g>
</g>
<g>
</g>
<g>
</g>
<g>
</g>
<g>
</g>
<g>
</g>
<g>
</g>
<g>
</g>
<g>
</g>
<g>
</g>
<g>
</g>
<g>
</g>
<g>
</g>
<g>
</g>
</svg>
